<?xml version="1.0" encoding="UTF-8"?>
<svg id="_圖層_1" data-name="圖層 1" xmlns="http://www.w3.org/2000/svg" viewBox="0 0 527.79 360.35">
  <defs>
    <style>
      .cls-1 {
        fill: #fff;
      }

      .cls-2, .cls-3 {
        fill: #a67c52;
      }

      .cls-3, .cls-4, .cls-5, .cls-6, .cls-7 {
        stroke-miterlimit: 10;
      }

      .cls-3, .cls-7 {
        stroke: #a67c52;
      }

      .cls-4 {
        stroke-width: 7px;
      }

      .cls-4, .cls-5 {
        stroke: red;
      }

      .cls-4, .cls-7 {
        fill: none;
      }

      .cls-5 {
        fill: red;
        stroke-width: 8px;
      }

      .cls-8 {
        fill: #e6e6e6;
      }

      .cls-9 {
        fill: #42210b;
      }

      .cls-6 {
        fill: #c69c6d;
        stroke: #c69c6d;
      }

      .cls-10 {
        fill: #b3b3b3;
      }

      .cls-7 {
        stroke-width: 4px;
      }
    </style>
  </defs>
  <g>
    <g>
      <rect class="cls-2" x="471.35" y="169.28" width="22.76" height="102.22" rx="11.38" ry="11.38" transform="translate(551.64 746.55) rotate(-122)"/>
      <circle class="cls-10" cx="458.26" cy="234.83" r="3.62"/>
      <circle class="cls-10" cx="473" cy="225.9" r="3.62"/>
    </g>
    <path class="cls-8" d="m396.35,264.64l31.23-19.36c1.13-.7,2.49-.6,3.01.23l.87,1.38c.52.83.02,2.08-1.11,2.78l-32.63,20.23,3.17,5.01,32.63-20.23c1.13-.7,2.49-.6,3.01.23l.87,1.38c.52.83.02,2.08-1.11,2.78l-31.23,19.36c3.61,1.39,8.53.82,12.87-1.87l30.23-18.74c6.33-3.92,9.12-10.91,6.2-15.54l-3.64-5.77c-2.92-4.62-10.49-5.19-16.82-1.27l-30.23,18.74c-4.34,2.69-7.02,6.83-7.33,10.65Z"/>
  </g>
  <g>
    <ellipse class="cls-7" cx="356.58" cy="236.5" rx="140" ry="54.5"/>
    <polygon class="cls-6" points="275.08 184.5 427.58 149 423.58 220 277.58 247 275.08 184.5"/>
    <path class="cls-3" d="m345.58,117l-70.5,67.5,152.5-35.5s11-20-82-32Z"/>
    <g>
      <path class="cls-5" d="m359.69,96.02s-26.92-13.04-28.61,25.24c0,0,2.52,20.59,23.98,27.33,0,0,17.25,2.11,29.03-14.71,0,0,8.41-20.61-1.26-33.66,0,0-7.99-11.36-23.14-4.21Z"/>
      <path class="cls-4" d="m359.28,94.94s1.25-25.42,8.4-44.77c7.15-19.35,24.4-48.38,24.4-48.38"/>
    </g>
  </g>
  <path class="cls-9" d="m150.81,223.19l128.62-131.65s3.39,171.11-77.75,146.24c0,0-30.98,5.85-47.73-4.24-.81-3.42-1.72-7.18-3.13-10.35Z"/>
  <g>
    <path d="m171.24,119.83s-3.89-.14-9.61-.86c.13.03.25.06.37.08,12.01,2.62,27.29,4.44,44.44,3.07-10.4.36-22.08-.27-35.2-2.29Z"/>
    <path d="m281.91,91.21c-5.4-39.71-80.96-35.24-84.17-35.03h-.12c-68.61,7.79-83.83,28.03-84.45,28.89l-.37.51-.08.62c-.72,5.49.32,10.47,3.08,14.89v-.22s3.78,2.33,3.78,2.33c.04.02.82.5,2.25,1.28-4.81-4.53-7.62-10.39-6.63-17.96,0,0,14.4-20.11,82.69-27.85,0,0,76.38-4.99,81.53,32.88,0,0-3.73,5.66-12.59,12.12l5.56-2.77-5.82,6.02c10.34-7.12,14.75-13.69,14.95-14l.51-.78-.13-.93Z"/>
    <path d="m171.24,119.83c13.11,2.02,24.8,2.65,35.2,2.29,16.35-1.31,34.39-5.51,52.92-14.74l7.48-3.72c8.86-6.46,12.59-12.12,12.59-12.12-5.15-37.86-81.53-32.88-81.53-32.88-68.3,7.74-82.69,27.85-82.69,27.85-.99,7.57,1.82,13.43,6.63,17.96,5.34,2.91,19.85,10.1,39.79,14.5,5.72.72,9.61.86,9.61.86Zm-53.64-32.29c2.67-2.92,20.3-19.55,80.51-26.39,2.35-.14,72.77-3.92,78.69,29.75-1.59,2.08-6.78,8.2-16.62,14.21-2.04,1.24-4.18,2.43-6.38,3.52-21.48,10.68-49.9,13.7-82.18,8.73l-.29-.03c-.32-.01-32.55-1.34-47.06-14.02-5.08-4.44-7.27-9.61-6.67-15.76Z"/>
    <path class="cls-9" d="m106.28,172.34c-39.84-24.12-49.31-29.86-49.17-36.18.09-3.98,3.99-6.11,9.89-9.33,1.16-.63,2.41-1.31,3.73-2.06,7.18-4.08,22.08.74,34.06,4.6,3.11,1,6.75,2.18,9,2.7l-.72-23.71c-8.51,1.58-34.84,7.27-54.91,20.4-3.76,2.46-5.47,5.26-5.21,8.56,1.44,18.59,58.72,48.39,80.67,58.31l.64.29,6.74,9.87-10.72-21.91-13.65-5.27-10.36-6.27Z"/>
    <path d="m151.54,221.06c-1.76-3.4-9.57-18.6-17.48-35.72l-.35-.14,6.69,13.68,18.04,36.89-6.43-9.41c-1.39-4.24-3.34-8.02-6.55-9.6l-12.88-18.86S23.33,148.56,56.79,126.67c24.91-16.3,58.69-21.26,58.69-21.26l.23,7.75.07-10.32-.67.1c-1.4.21-34.62,5.24-59.7,21.64-5.35,3.5-7.86,7.92-7.46,13.13.84,10.87,15.31,24.73,42.98,41.21,18.16,10.81,36.36,19.32,39.97,20.98l12.86,18.83.59.29c2.1,1.03,3.82,3.69,5.28,8.13l.11.34,6.63,9.71,4.31-2.51-5.96-12.18-1.59,1.65-1.6-3.09Z"/>
    <path d="m141,205.79l-6.74-9.87-.64-.29c-21.95-9.92-79.23-39.72-80.67-58.31-.26-3.3,1.45-6.1,5.21-8.56,20.07-13.13,46.4-18.83,54.91-20.4l.72,23.71c.25.06.49.11.7.15l1.13-6.38.09-12.69-.23-7.75s-33.78,4.97-58.69,21.26c-33.46,21.89,75.8,71.24,75.8,71.24l12.88,18.86c3.21,1.58,5.16,5.36,6.55,9.6l6.43,9.41-18.04-36.89-6.69-13.68-3.43-1.32,10.72,21.91Z"/>
    <path d="m71.96,126.94c8.54-4.85,33.51,6.05,41.9,7.69l-.08-2.56c-2.25-.52-5.89-1.7-9-2.7-11.98-3.87-26.88-8.68-34.06-4.6-1.32.75-2.57,1.43-3.73,2.06-5.9,3.22-9.8,5.35-9.89,9.33-.14,6.32,9.33,12.05,49.17,36.18l10.36,6.27,13.65,5.27-1.6-3.28-10.75-4.12c-69.48-42.14-65.48-38.45-45.97-49.53Z"/>
    <path d="m132.1,181.91h0l1.61,3.29.35.14c-.98-2.13-1.97-4.29-2.94-6.46l.98,3.03Z"/>
    <path d="m115.55,134.84c-.1-1.19-.1-2.24.03-3.1l.04-5.89-1.13,6.38c-.21-.04-.46-.1-.7-.15l.08,2.56c.67.13,1.24.21,1.69.21Z"/>
    <polygon points="128.68 180.6 130.28 183.88 133.71 185.2 132.1 181.91 128.68 180.6"/>
    <path d="m119.61,150.69c-.1-.28-.19-.55-.28-.83v.26s.28.56.28.56Z"/>
    <path d="m119.04,174.22l-10.17-6.16c-30.2-18.29-46.83-28.36-46.76-31.79.02-1.09,4.05-3.28,7.29-5.05,1.18-.64,2.45-1.34,3.8-2.1,5.27-2.99,20.78,2.02,30.06,5.01,5.15,1.66,8.44,2.69,10.69,3.06l-.08-2.55c-8.39-1.65-33.36-12.54-41.9-7.69-19.51,11.08-23.51,7.39,45.97,49.53l10.75,4.12-1.61-3.3-8.03-3.08Z"/>
    <path d="m119.34,150.12v-.26c-1.18-3.42-2.13-6.58-2.79-9.35l.05,1.75,7.68,23.67,7.82,15.99h0l-.98-3.03c-4.39-9.76-8.57-19.74-11.5-28.19l-.28-.56Z"/>
    <polygon points="128.11 177.7 127.06 177.3 128.68 180.6 132.1 181.91 124.28 165.92 128.11 177.7"/>
    <path d="m113.94,137.18c.38.06.73.11,1.05.13l1.61,4.94-.05-1.75c-.51-2.14-.85-4.05-.99-5.67-.44,0-1.01-.07-1.69-.21l.08,2.55Z"/>
    <path class="cls-9" d="m249.7,117.17c-34.87,13.8-67.12,11.51-88.95,6.73-19.37-4.24-33.58-10.92-40.01-14.32l-.2,22.82c-1.72,9.38,18.74,53.76,33.85,83.27l95.31-98.5Z"/>
    <path class="cls-9" d="m118.27,105.32s.74.45,2.13,1.22c-.89-.82-1.72-1.67-2.46-2.54l.28,9.13.06-7.8Z"/>
    <path class="cls-9" d="m258.2,111.97l-104.44,107.94s-10.7-20.67-20.41-42.23l1.07,3.3,20.31,41.52,111.84-115.59c-1.19.82-2.44,1.64-3.79,2.47-1.48.9-3.02,1.76-4.58,2.59Z"/>
    <path class="cls-9" d="m115.8,101.08v1.75s1.08-.16,1.08-.16c-.39-.52-.74-1.05-1.08-1.59Z"/>
    <path class="cls-9" d="m207.24,124.63c-2.01.08-4.03.12-6.09.12-9.53,0-19.59-.81-30.15-2.43-.86-.04-4.53-.22-9.63-.85,13.23,2.89,28.84,4.58,45.87,3.16Z"/>
    <path class="cls-9" d="m266.84,103.66c-1.62,1.18-3.38,2.38-5.35,3.58-2,1.22-4.19,2.44-6.57,3.62-11.37,5.65-27.21,10.53-48.48,11.25-17.15,1.37-32.43-.46-44.44-3.07-.13-.03-.25-.06-.37-.08-11.03-1.39-28.89-4.93-39-13.78-.27-.24-.53-.48-.79-.72-1.44-.78-2.22-1.26-2.25-1.28l-3.78-2.33v.22c.33.54.69,1.07,1.08,1.59l1.01-.15.04,1.47c.74.87,1.56,1.72,2.46,2.54,5.29,2.91,20.18,10.39,40.97,14.93,5.1.64,8.77.82,9.63.85,10.56,1.62,20.62,2.43,30.15,2.43,2.06,0,4.08-.05,6.09-.12,16.68-1.4,34.72-5.79,53.24-15l-2.27,2.34c1.56-.83,3.11-1.69,4.58-2.59,1.35-.82,2.6-1.65,3.79-2.47l5.82-6.02-5.56,2.77Z"/>
    <path class="cls-9" d="m206.44,122.13c21.27-.73,37.11-5.6,48.48-11.25,2.38-1.18,4.57-2.4,6.57-3.62,1.97-1.2,3.74-2.4,5.35-3.58l-7.48,3.72c-18.53,9.22-36.57,13.43-52.92,14.74Z"/>
    <path class="cls-9" d="m161.63,118.97c-19.94-4.4-34.45-11.59-39.79-14.5.26.24.52.49.79.72,10.11,8.84,27.98,12.39,39,13.78Z"/>
    <path class="cls-9" d="m136.1,186.13l-2.04-.79c7.91,17.12,15.72,32.32,17.48,35.72l1.6,3.09,1.59-1.65-20.31-41.52,1.67,5.15Z"/>
    <path class="cls-9" d="m116.06,124.4l2.03,6.27.12-17.55-.28-9.13c-.37-.44-.73-.88-1.06-1.32l-1.09.16-.07,10.32.34,11.25Z"/>
    <path class="cls-9" d="m117.9,102.52l-1.01.15c.33.45.69.89,1.06,1.32l-.04-1.47Z"/>
    <polygon class="cls-9" points="115.94 124.06 116.06 124.4 115.72 113.16 115.63 125.85 115.94 124.06"/>
    <path class="cls-9" d="m119.09,141.83l7.52,23.16,7.82,15.99-1.07-3.3c-6.2-13.77-11.98-27.89-14.31-37.23l.04,1.38Z"/>
    <path class="cls-9" d="m131.12,178.88c.98,2.17,1.96,4.33,2.94,6.46l2.04.79-1.67-5.15-7.82-15.99,4.51,13.9Z"/>
    <path class="cls-9" d="m116.65,134.34l2.43,7.49-.04-1.38c-.92-3.68-1.3-6.62-.96-8.5v-1.28s-2.03-6.27-2.03-6.27l.31,10.28c.15-.08.26-.19.29-.34Z"/>
    <path class="cls-9" d="m115.63,125.85l-.04,5.89c-.13.87-.13,1.91-.03,3.1.36,0,.63-.06.82-.16l-.31-10.28-.11-.35-.32,1.79Z"/>
    <path class="cls-9" d="m119.61,150.69l6.99,14.3-7.52-23.16.24,8.03c.09.27.19.55.28.83Z"/>
    <path class="cls-9" d="m116.37,134.68l.18,5.83c.67,2.77,1.62,5.93,2.78,9.35l-.24-8.03-2.43-7.49c-.03.16-.14.26-.29.34Z"/>
    <path class="cls-9" d="m131.12,178.88l-4.51-13.9-6.99-14.3c2.93,8.46,7.12,18.43,11.5,28.19Z"/>
    <path class="cls-9" d="m116.37,134.68c-.19.1-.45.16-.82.16.14,1.63.48,3.54.99,5.67l-.18-5.83Z"/>
    <path class="cls-9" d="m118.22,113.12l.6,19.78,14.54,44.78c9.7,21.56,20.41,42.23,20.41,42.23l104.44-107.94c-.72.38-1.44.77-2.18,1.14-14.06,6.99-30.39,10.83-48.79,11.52-17.03,1.43-32.64-.27-45.87-3.16-11.32-1.41-29.72-5.07-40.39-14.4-.2-.18-.39-.36-.58-.54-1.39-.76-2.13-1.22-2.13-1.22l-.06,7.8Zm2.33,19.27l.2-22.82c6.42,3.4,20.63,10.08,40.01,14.32,21.82,4.78,54.08,7.07,88.95-6.73l-95.31,98.5c-15.11-29.5-35.56-73.88-33.85-83.27Z"/>
    <path class="cls-9" d="m161.37,121.47c-20.78-4.54-35.68-12.02-40.97-14.93.19.18.38.36.58.54,10.67,9.33,29.07,12.99,40.39,14.4Z"/>
    <path class="cls-9" d="m258.2,111.97l2.27-2.34c-18.51,9.21-36.55,13.61-53.24,15,18.4-.69,34.73-4.53,48.79-11.52.73-.37,1.45-.76,2.18-1.14Z"/>
    <polygon class="cls-9" points="118.22 113.12 118.09 130.67 118.82 132.9 118.22 113.12"/>
    <path class="cls-9" d="m119.04,140.45c2.33,9.34,8.11,23.46,14.31,37.23l-14.54-44.78.23,7.55Z"/>
    <path class="cls-9" d="m119.04,140.45l-.23-7.55-.72-2.23v1.28c-.35,1.88.03,4.82.95,8.5Z"/>
  </g>
  <g>
    <path class="cls-1" d="m178.04,321.25v9.29h-66.25v-9.29h66.25Z"/>
    <path class="cls-1" d="m245.22,300.01v58.61h-9.43v-5.69h-38.16v5.83h-9v-58.76h56.6Zm-9.43,44.07v-35.35h-38.16v35.35h38.16Z"/>
    <path class="cls-1" d="m314.05,326.29c-2.02,6.34-4.75,11.81-8.42,16.63,4.82,4.46,10.66,8.06,17.64,10.15-1.94,1.66-4.46,5.04-5.54,7.27-7.06-2.52-12.89-6.41-17.64-11.23-5.11,4.68-11.31,8.42-18.72,11.16-1.01-1.8-3.46-4.97-5.11-6.48,7.42-2.59,13.68-6.26,18.65-10.87-3.17-4.46-5.76-9.5-7.85-15.05-.72.94-1.51,1.73-2.23,2.45-1.44-1.3-4.39-3.67-6.34-4.9v15.99h-13.03v6.41h-7.78v-48.6h20.81v25.63c3.96-3.67,8.14-9.29,10.66-14.54l7.92,2.38c-2.23,4.46-5.33,9.36-8.42,13.25l5.47-1.44c1.51,4.46,3.53,8.5,6.19,12.17,2.59-3.74,4.61-7.85,5.98-12.53l7.78,2.16Zm-43.42-19.23h-5.18v26.5h5.18v-26.5Zm39.96,3.17h-29.52v-7.78h16.99c-1.01-2.23-2.45-4.82-3.74-6.98l7.34-3.31c1.8,2.66,3.82,6.19,4.9,8.5l-3.6,1.8h18.94v7.78h-10.3c4.1,4.39,9.29,10.51,11.74,14.47l-6.7,4.9c-2.3-4.18-7.49-10.8-11.74-15.55l5.69-3.82Z"/>
    <path class="cls-1" d="m326.71,356.68c2.02-3.31,3.74-8.71,4.54-12.96l5.69,2.09c-.94,4.39-2.23,9.87-4.25,13.32l-5.98-2.45Zm34.35-14.69h-32.62v-6.48h12.53v-3.6h-11.09v-6.48h11.09v-3.1h-11.23v-27.15h30.46v27.15h-11.67v3.1h11.52v6.48h-11.52v3.6h12.53v6.48Zm-24.91-25.42h6.05v-15.62h-6.05v3.02l3.38-1.01c1.08,3.24,2.02,7.56,2.23,10.3l-3.74,1.22c-.14-2.81-.86-6.84-1.87-10.01v12.1Zm7.27,28.66c.72,3.96,1.08,9.07,1.01,12.53l-5.47.65c.14-3.46-.14-8.64-.72-12.6l5.18-.58Zm7.2-.5c1.3,3.74,2.59,8.64,2.95,11.88l-5.26,1.08c-.29-3.24-1.51-8.21-2.81-12.02l5.11-.94Zm2.95-43.78h-6.19v11.81c1.01-2.81,2.23-7.06,2.74-9.87l3.46,1.22v-3.17Zm0,15.62v-10.15c-1.15,2.95-2.23,6.12-3.17,8.14l-3.02-1.15v3.17h6.19Zm26.93-.79v11.02h11.52v33.12h-8.21v-2.52h-13.32v2.74h-7.78v-5.04l-5.26,2.09c-.72-3.24-2.74-8.06-4.75-11.67l5.04-1.8c2.09,3.24,4.1,7.63,4.97,10.73v-27.65h9.43v-33.7h8.35v14.76h13.97v7.92h-13.97Zm3.31,18.79h-13.32v15.05h13.32v-15.05Z"/>
    <path class="cls-1" d="m413.55,319.31c-1.01,9.29-2.81,21.75-5.26,29.88l-8.64-3.46c2.52-7.63,4.61-18.43,5.54-28.01l8.35,1.58Zm13.54-5.83v33.41c0,3.38.58,3.96,4.03,3.96h10.3c3.6,0,4.25-2.3,4.75-13.54,2.02,1.51,5.69,3.02,8.06,3.6-1.01,13.68-3.31,17.93-12.1,17.93h-12.02c-9.36,0-11.95-2.88-11.95-11.95v-33.41h8.93Zm-.65-19.37c6.48,4.1,15.62,10.44,19.95,14.91l-6.34,6.7c-3.89-4.39-12.75-11.23-19.44-15.77l5.83-5.83Zm31.39,21.31c4.03,8.57,7.78,19.37,9.29,26.79l-8.71,3.6c-1.08-7.34-4.82-18.72-8.57-27.15l7.99-3.24Z"/>
  </g>
</svg>