<?xml version="1.0" encoding="utf-8"?>
<!-- Generator: Adobe Illustrator 27.3.1, SVG Export Plug-In . SVG Version: 6.00 Build 0)  -->
<svg version="1.1" id="圖層_1" xmlns="http://www.w3.org/2000/svg" xmlns:xlink="http://www.w3.org/1999/xlink" x="0px" y="0px"
	 viewBox="0 0 499 372" style="enable-background:new 0 0 499 372;" xml:space="preserve">
<style type="text/css">
	.st0{fill:#A67C52;}
	.st1{fill:#B3B3B3;}
	.st2{fill:#E6E6E6;}
	.st3{fill:none;stroke:#A67C52;stroke-width:4;stroke-miterlimit:10;}
	.st4{fill:#C69C6D;stroke:#C69C6D;stroke-miterlimit:10;}
	.st5{fill:#A67C52;stroke:#A67C52;stroke-miterlimit:10;}
	.st6{fill:#FF0000;stroke:#FF0000;stroke-width:8;stroke-miterlimit:10;}
	.st7{fill:none;stroke:#FF0000;stroke-width:7;stroke-miterlimit:10;}
	.st8{fill:#FFFFFF;stroke:#000000;stroke-width:5;stroke-miterlimit:10;}
	.st9{fill:#42210B;}
	.st10{fill:#42210B;stroke:#000000;stroke-width:5;stroke-miterlimit:10;}
	.st11{fill:#42210B;stroke:#42210B;stroke-width:5;stroke-miterlimit:10;}
	.st12{fill:#FFFFFF;}
</style>
<g>
	<g>
		<path class="st0" d="M486.49,196.3L486.49,196.3c-3.32-5.31-10.37-6.94-15.68-3.62l-67.39,42.11c-5.31,3.32-6.94,10.37-3.62,15.68
			v0c3.32,5.31,10.37,6.94,15.68,3.62l67.39-42.11C488.17,208.66,489.8,201.61,486.49,196.3z"/>
		<circle class="st1" cx="418.67" cy="237.83" r="3.62"/>
		<circle class="st1" cx="433.42" cy="228.89" r="3.62"/>
	</g>
	<path class="st2" d="M356.77,267.63l31.23-19.36c1.13-0.7,2.49-0.6,3.01,0.23l0.87,1.38c0.52,0.83,0.02,2.08-1.11,2.78
		l-32.63,20.23l3.17,5.01l32.63-20.23c1.13-0.7,2.49-0.6,3.01,0.23l0.87,1.38c0.52,0.83,0.02,2.08-1.11,2.78l-31.23,19.36
		c3.61,1.39,8.53,0.82,12.87-1.87l30.23-18.74c6.33-3.92,9.12-10.91,6.2-15.54l-3.64-5.77c-2.92-4.62-10.49-5.19-16.82-1.27
		l-30.23,18.74C359.75,259.67,357.08,263.81,356.77,267.63z"/>
</g>
<g>
	<ellipse class="st3" cx="317" cy="239.5" rx="140" ry="54.5"/>
	<polygon class="st4" points="235.5,187.5 388,152 384,223 238,250 	"/>
	<path class="st5" d="M306,120l-70.5,67.5L388,152C388,152,399,132,306,120z"/>
	<g>
		<path class="st6" d="M320.11,99.02c0,0-26.92-13.04-28.61,25.24c0,0,2.52,20.59,23.98,27.33c0,0,17.25,2.11,29.03-14.71
			c0,0,8.41-20.61-1.26-33.66C343.24,103.22,335.25,91.87,320.11,99.02z"/>
		<path class="st7" d="M319.7,97.93c0,0,1.25-25.42,8.4-44.77c7.15-19.35,24.4-48.38,24.4-48.38"/>
	</g>
</g>
<g>
	<path class="st8" d="M158.32,61.66c0,0,76.38-4.99,81.53,32.88c0,0-5.19,7.91-17.95,15.7c-2,1.22-4.19,2.44-6.57,3.62
		c-16.93,8.42-43.72,15.12-83.68,8.96c0,0-33.25-1.21-48.61-14.64c-5.29-4.63-8.46-10.7-7.42-18.68
		C75.62,89.51,90.02,69.4,158.32,61.66z"/>
	<path class="st9" d="M111.23,226.19L239.85,94.54c0,0,3.39,171.11-77.75,146.24c0,0-30.98,5.85-47.73-4.24
		C113.56,233.12,112.64,229.36,111.23,226.19z"/>
	<path class="st10" d="M17.21,129.66c24.91-16.3,58.69-21.26,58.69-21.26l1.37,45.33l23.55,48.15l18.04,36.89l-6.43-9.41
		c-1.39-4.24-3.34-8.02-6.55-9.6L93,200.9C93,200.9-16.25,151.55,17.21,129.66z"/>
	<path class="st8" d="M92.52,184.91l-14.17-5.44c-69.48-42.14-65.48-38.45-45.97-49.53c10.23-5.81,44.05,10.98,44.69,7.4
		L92.52,184.91z"/>
	<path class="st11" d="M114.18,222.9c0,0-38.26-73.88-35.68-87.96l0.19-26.63c0,0,67.29,41.59,142.2,4.31L114.18,222.9z"/>
</g>
<g>
	<path class="st12" d="M138.17,325.18v7.34H72.64v-7.34H138.17z"/>
	<path class="st12" d="M204.62,303.72v57.03h-7.27v-5.69h-40.32v5.98h-6.91v-57.32H204.62z M197.35,348.22v-37.73h-40.32v37.73
		H197.35z"/>
	<path class="st12" d="M224.78,343.83v6.62h-6.12v-47.38h19.44v40.75H224.78z M224.78,309.27v28.37h7.13v-28.37H224.78z
		 M273.46,328.71c-2.02,6.62-5.04,12.31-8.86,17.14c4.97,5.04,11.09,8.93,18.36,11.16c-1.51,1.37-3.46,3.89-4.39,5.69
		c-7.2-2.66-13.32-6.7-18.29-11.95c-5.18,4.97-11.52,8.93-19.08,12.02c-0.86-1.51-2.66-3.89-4.1-5.11
		c7.7-2.88,14.04-6.77,19.08-11.81c-3.6-4.82-6.55-10.51-8.86-16.92c-1.01,1.37-2.09,2.59-3.17,3.6c-1.15-1.08-3.74-3.1-5.26-3.96
		c4.18-3.82,8.5-9.65,11.23-14.98l6.26,1.87c-2.45,4.61-5.76,9.58-9,13.46l5.83-1.58c1.73,4.97,4.18,9.58,7.2,13.68
		c3.1-4.1,5.33-8.79,6.91-14.04L273.46,328.71z M281.95,312.58h-40.61v-6.12h18.22c-1.08-2.3-2.74-5.47-4.25-7.85l5.69-2.59
		c1.8,2.66,3.89,6.12,4.9,8.42l-4.03,2.02h20.09V312.58z M270.5,313.3c4.32,4.46,9.79,10.58,12.38,14.54l-5.18,3.82
		c-2.45-3.96-7.78-10.37-12.1-15.05L270.5,313.3z"/>
	<path class="st12" d="M287.78,359.74c2.16-3.38,3.82-8.86,4.61-13.18l4.46,1.66c-0.79,4.46-2.23,10.01-4.32,13.46L287.78,359.74z
		 M321.05,344.12h-31.75v-5.26h12.89v-4.68h-11.59v-5.26h11.59v-4.03H290.8v-25.92h29.02v25.92h-11.74v4.03h11.95v5.26h-11.95v4.68
		h12.96V344.12z M295.92,320.21h6.98v-16.56h-6.98V320.21z M299.52,306.17c1.08,3.31,2.09,7.71,2.3,10.44l-3.24,1.01
		c-0.14-2.88-1.01-7.27-2.09-10.66L299.52,306.17z M303.19,347.79c0.79,3.89,1.15,9.07,1.08,12.38l-4.46,0.58
		c0.22-3.38-0.14-8.57-0.86-12.46L303.19,347.79z M310.32,347.43c1.37,3.67,2.74,8.42,3.1,11.52l-4.32,1.01
		c-0.29-3.24-1.51-8.06-2.88-11.74L310.32,347.43z M314.57,303.65h-7.34v16.56h7.34V303.65z M307.8,316.9
		c1.01-2.95,2.38-7.78,2.95-10.95l3.67,1.37c-1.37,3.53-2.74,7.92-3.96,10.58L307.8,316.9z M317.59,346.57
		c2.16,3.46,4.1,8.14,4.9,11.23l-4.39,1.66c-0.72-3.1-2.59-7.85-4.68-11.38L317.59,346.57z M339.7,317.98v12.38h11.95v31.9h-6.34
		v-2.81h-15.99v3.1h-6.05v-32.19h9.94v-33.77h6.48v15.19h14.62v6.19H339.7z M345.31,336.41h-15.99v16.92h15.99V336.41z"/>
	<path class="st12" d="M373.17,322.73c-1.08,8.86-3.17,21.03-5.9,28.88l-6.7-2.81c2.81-7.42,5.11-18.36,6.05-27.29L373.17,322.73z
		 M385.56,316.68v34.35c0,3.38,0.79,3.96,4.61,3.96h12.17c4.1,0,4.75-2.38,5.26-14.26c1.58,1.22,4.54,2.45,6.26,2.88
		c-0.79,13.54-2.74,17.64-11.09,17.64h-13.32c-8.42,0-10.8-2.3-10.8-10.22v-34.35H385.56z M386.13,298.47
		c6.62,4.39,15.41,10.87,19.66,15.41l-4.97,5.11c-3.96-4.46-12.53-11.45-19.23-16.06L386.13,298.47z M417.31,319.42
		c4.18,8.57,7.99,19.44,9.5,26.79l-6.7,2.81c-1.3-7.34-5.11-18.65-9-27.15L417.31,319.42z"/>
</g>
</svg>
